<?xml version="1.0" standalone="no"?>
<!DOCTYPE svg PUBLIC "-//W3C//DTD SVG 20010904//EN"
 "http://www.w3.org/TR/2001/REC-SVG-20010904/DTD/svg10.dtd">
<svg version="1.0" xmlns="http://www.w3.org/2000/svg"
 width="256.000000pt" height="256.000000pt" viewBox="0 0 256.000000 256.000000"
 preserveAspectRatio="xMidYMid meet">
<metadata>
Created by potrace 1.11, written by Peter Selinger 2001-2013
</metadata>
<g transform="translate(0.000000,256.000000) scale(0.100000,-0.100000)"
fill="#000000" stroke="none">
<path d="M2234 2348 c-164 -131 -256 -207 -603 -499 -100 -84 -342 -317 -488
-470 -344 -360 -580 -667 -661 -860 -23 -54 -27 -78 -27 -159 0 -91 1 -97 32
-141 102 -148 389 -204 698 -138 241 52 438 151 607 307 64 59 142 151 134
159 -2 2 -53 -12 -112 -33 -82 -28 -129 -38 -189 -41 -44 -1 -73 0 -65 3 265
112 488 312 605 544 56 111 56 109 -17 94 -35 -8 -99 -17 -143 -20 l-80 -7 57
52 c134 122 264 322 313 479 6 22 5 23 -29 16 -35 -6 -150 10 -175 25 -8 6 9
36 59 102 122 162 237 423 275 622 17 90 19 117 6 117 -4 0 -93 -68 -197 -152z"/>
<path d="M1980 2255 c-8 -2 -49 -9 -90 -15 -93 -16 -298 -83 -450 -149 -63
-27 -116 -48 -118 -46 -6 6 26 60 47 79 34 31 25 38 -36 30 -125 -15 -284 -80
-388 -158 -33 -24 -64 -42 -69 -39 -4 3 -6 30 -3 59 7 68 2 68 -106 12 -188
-97 -357 -325 -396 -533 l-8 -40 -12 45 c-8 28 -11 70 -8 110 l6 65 -40 -45
c-50 -54 -120 -198 -148 -300 -69 -256 -66 -624 6 -764 25 -49 62 -76 103 -76
70 0 115 45 267 266 330 479 818 983 1351 1398 61 48 112 91 112 96 0 6 -1 9
-2 9 -2 -1 -10 -3 -18 -4z"/>
</g>
</svg>
